<svg width="26" height="26" viewBox="0 0 26 26" fill="none" xmlns="http://www.w3.org/2000/svg">
<path d="M24.7419 5.87099H13.593L11.1997 3.47773C11.1211 3.3991 11.0145 3.35486 10.9032 3.35486H1.25806C0.563246 3.35486 0 3.9181 0 4.61292V21.3871C0 22.0819 0.563246 22.6452 1.25806 22.6452H24.7419C25.4368 22.6452 26 22.0819 26 21.3871V7.12905C26 6.43423 25.4368 5.87099 24.7419 5.87099ZM25.1613 21.3871C25.1613 21.6187 24.9735 21.8065 24.7419 21.8065H1.25806C1.02648 21.8065 0.83871 21.6187 0.83871 21.3871V4.61292C0.83871 4.38133 1.02648 4.19357 1.25806 4.19357H10.7296L13.1229 6.58683C13.2015 6.66545 13.3081 6.7097 13.4194 6.7097H24.7419C24.9735 6.7097 25.1613 6.89746 25.1613 7.12905V21.3871Z" fill="black"/>
</svg>
